HIERARCHY
ROOT Hips
{
  OFFSET 28.6816 95.0512 -23.9036
  CHANNELS 6 Xposition Yposition Zposition Zrotation Xrotation Yrotation
  JOINT ToSpine
  {
    OFFSET -2.69724 7.43032 -0.144315
    CHANNELS 3 Zrotation Xrotation Yrotation
    JOINT Spine
    {
      OFFSET -0.0310711 10.7595 1.96963
      CHANNELS 3 Zrotation Xrotation Yrotation
      JOINT Spine1
      {
        OFFSET 13.1342 3.43533 0.764692
        CHANNELS 3 Zrotation Xrotation Yrotation
        JOINT Neck
        {
          OFFSET 29.8703 7.82586 -0.130764
          CHANNELS 3 Zrotation Xrotation Yrotation
          JOINT Head
          {
            OFFSET 9.52751 0.295786 -0.907742
            CHANNELS 3 Zrotation Xrotation Yrotation
            End Site
            {
              OFFSET 16.4037 0.713936 2.7358
            }
          }
        }
        JOINT LeftShoulder
        {
          OFFSET 27.5574 4.95586 2.47156
          CHANNELS 3 Zrotation Xrotation Yrotation
          JOINT LeftArm
          {
            OFFSET 1.20734 -0.998971 20.1238
            CHANNELS 3 Zrotation Xrotation Yrotation
            JOINT LeftForeArm
            {
              OFFSET 26.8049 -0.0536703 -0.155908
              CHANNELS 3 Zrotation Xrotation Yrotation
              JOINT LeftHand
              {
                OFFSET 26.6817 0 0.320147
                CHANNELS 3 Zrotation Xrotation Yrotation
                End Site
                {
                  OFFSET 18.6119 0 0.382219
                }
              }
            }
          }
        }
        JOINT RightShoulder
        {
          OFFSET 27.5927 4.71444 -2.65209
          CHANNELS 3 Zrotation Xrotation Yrotation
          JOINT RightArm
          {
            OFFSET 2.83739 -1.17114 -18.7564
            CHANNELS 3 Zrotation Xrotation Yrotation
            JOINT RightForeArm
            {
              OFFSET 28.839 -0.0548439 1.22491
              CHANNELS 3 Zrotation Xrotation Yrotation
              JOINT RightHand
              {
                OFFSET 26.5114 0 -0.101894
                CHANNELS 3 Zrotation Xrotation Yrotation
                End Site
                {
                  OFFSET 18.2168 0 0
                }
              }
            }
          }
        }
      }
    }
  }
  JOINT LeftUpLeg
  {
    OFFSET -4.76168 -1.9167 -10.2353
    CHANNELS 3 Zrotation Xrotation Yrotation
    JOINT LeftLeg
    {
      OFFSET 2.55951 -42.0585 -8.02213
      CHANNELS 3 Zrotation Xrotation Yrotation
      JOINT LeftFoot
      {
        OFFSET 3.16357 -42.5282 -3.95426
        CHANNELS 3 Zrotation Xrotation Yrotation
        JOINT LeftToeBase
        {
          OFFSET 0.346054 -6.02161 12.8035
          CHANNELS 3 Zrotation Xrotation Yrotation
          End Site
          {
            OFFSET 0.134235 -1.35082 5.13018
          }
        }
      }
    }
  }
  JOINT RightUpLeg
  {
    OFFSET -4.94151 -1.41743 10.6446
    CHANNELS 3 Zrotation Xrotation Yrotation
    JOINT RightLeg
    {
      OFFSET -2.56294 -42.0364 -7.94377
      CHANNELS 3 Zrotation Xrotation Yrotation
      JOINT RightFoot
      {
        OFFSET -3.0952 -42.555 -4.02241
        CHANNELS 3 Zrotation Xrotation Yrotation
        JOINT RightToeBase
        {
          OFFSET -0.0828122 -6.13587 12.8035
          CHANNELS 3 Zrotation Xrotation Yrotation
          End Site
          {
            OFFSET -0.131328 -1.35082 5.13018
          }
        }
      }
    }
  }
}
MOTION
Frames:	13
Frame Time:	0.0333333
31.387 97.824 -11.402 -6.13538 -69.0284 -97.2128 -70.1915 0 88.8779 64.6255 69.8867 24.7915 3.85289 21.5373 0.220412 -157.278 21.2335 178.116 -163.138 60.7715 -173.181 0.190134 -13.8874 -33.8102 -80.4823 43.684 -74.7038 9.73342 13.7368 -35.4823 0.420957 0.000575232 0.35866 -1.80687 5.85731 45.3779 -72.7546 -32.6568 84.8126 8.0548 -14.0179 30.4181 0.58676 0.000331107 0.0646651 -52.2741 -2.91391 98.1977 -1.29973 21.3744 -12.1627 4.8277 -9.51161 -1.06129 -1.19832 2.49114 0.235434 -55.1159 2.78871 81.2729 2.89641 15.5901 12.8661 -8.34646 -5.51423 1.25742 1.59214 0.233046 -9.92034 
31.3613 97.824 -11.3817 -6.50036 -69.0728 -97.6505 -70.1915 0 88.8779 64.2749 69.9143 25.0179 4.05966 21.5934 0.212364 -157.302 21.1617 177.894 -162.828 60.6828 -173.376 0.183455 -13.9511 -33.5813 -81.0676 43.5351 -73.8553 11.3709 15.4561 -36.6343 0.420957 0.000575232 0.35866 -1.84144 5.87464 45.8461 -74.0576 -32.1842 84.0402 7.38228 -12.2633 31.5436 0.58676 0.000331107 0.0646651 -52.4123 -2.89294 98.2422 -1.38023 21.2621 -11.8812 4.87309 -9.49992 -1.06291 -1.26694 2.52258 0.481117 -55.1198 2.68953 81.181 2.95689 15.718 13.0168 -8.43987 -5.51592 1.26501 1.5586 0.108391 -9.68592 
31.3857 97.8298 -11.3982 -7.47293 -69.0611 -98.8851 -70.1915 0 88.8779 65.2334 70.3117 23.1733 2.96653 21.4948 1.45875 -156.305 20.9881 177.757 -160.536 60.3575 -174.192 0.251556 -13.6307 -33.7525 -81.3937 43.2726 -72.5192 14.741 18.0304 -39.9072 0.420957 0.000575232 0.35866 -1.90983 6.05055 46.0203 -74.4566 -31.2434 82.9056 8.0871 -11.4439 35.7602 0.58676 0.000331107 0.0646651 -52.5392 -3.10416 98.1829 -1.38903 21.0773 -11.1536 4.86284 -9.79718 -1.0735 -1.55628 3.22238 0.343458 -54.8163 2.42001 81.0777 2.94018 16.3477 13.4818 -8.30628 -5.87175 1.25683 1.51155 0.533227 -9.4876 
31.3871 97.8092 -11.5351 -7.14151 -68.8812 -98.4649 -70.1915 0 88.8779 65.932 70.3695 22.4349 2.55755 21.4392 1.5717 -155.689 21.0496 177.204 -159.076 60.3057 -175.065 0.214546 -13.8159 -33.5808 -80.1533 43.1241 -72.5252 15.0089 15.675 -44.3207 0.420957 0.000575232 0.35866 -1.89168 5.91301 46.45 -74.4349 -30.4998 82.5766 9.84776 -11.3744 41.4561 0.58676 0.000331107 0.0646651 -52.0209 -3.00756 98.1657 -1.38827 21.5151 -11.2593 4.92299 -9.95741 -1.08199 -1.60242 3.34658 0.297778 -54.4759 2.51984 81.1925 2.87154 16.4116 12.7503 -7.70492 -6.19285 1.21153 1.27638 1.25553 -8.31425 
31.3396 97.8043 -11.7252 -7.57267 -68.9036 -98.7867 -70.1915 0 88.8779 67.6983 70.6604 20.68 2.18708 21.4828 1.64046 -154.999 21.128 177.168 -159.137 60.4175 -174.204 0.222404 -13.8212 -33.3145 -80.2704 42.416 -71.7045 17.0988 14.3344 -50.6804 0.420957 0.000575232 0.35866 -1.77579 5.72657 45.5582 -73.9038 -30.7232 82.9323 12.4226 -11.0509 49.0101 0.58676 0.000331107 0.0646651 -51.8011 -2.78019 98.2188 -1.42369 21.8143 -11.2007 4.93377 -9.86691 -1.0791 -1.47057 3.05805 0.296323 -54.3922 2.78132 81.3786 2.7899 16.3553 12.3324 -8.27733 -5.76062 1.25359 1.16691 0.407185 -7.36549 
31.3307 97.8128 -11.9171 -8.29299 -68.5941 -99.3726 -70.1915 0 88.8779 67.9583 70.7355 20.5979 2.26657 21.5338 1.59963 -154.535 21.1598 177.049 -158.978 60.4376 -174.18 0.263331 -13.6796 -33.0474 -79.3448 41.5324 -71.8357 19.1801 12.2903 -58.0131 0.420957 0.000575232 0.35866 -1.768 5.75307 45.289 -73.4859 -30.2381 83.2308 15.6873 -10.2233 57.6797 0.58676 0.000331107 0.0646651 -51.2756 -2.558 98.1954 -1.38197 22.0716 -10.9611 4.96543 -9.87876 -1.08092 -1.46378 3.07902 0.224464 -54.0455 3.12437 81.6296 2.73675 16.1701 12.4589 -8.54111 -5.30689 1.27332 1.2453 -0.000302964 -7.7268 
31.2646 97.8055 -12.0786 -7.95361 -68.5713 -98.9879 -70.1915 0 88.8779 68.1324 70.5937 20.2062 2.54935 21.3401 1.57981 -153.987 21.1791 176.858 -158.456 60.3949 -174.78 0.318956 -13.4953 -32.5883 -78.4186 40.4252 -72.6152 21.7531 10.2852 -65.3283 0.420957 0.000575232 0.35866 -1.83747 5.82269 46.0565 -72.46 -28.7756 84.5037 18.8676 -8.66124 66.1323 0.58676 0.000331107 0.0646651 -51.0661 -2.51309 98.1607 -1.37468 22.1701 -11.0993 5.1538 -9.65311 -1.0809 -1.3492 2.83031 0.218558 -53.9507 3.20378 81.6728 2.66569 16.0733 12.2556 -7.54243 -5.67625 1.19174 1.17007 1.22451 -7.66784 
31.3137 97.823 -12.2412 -7.97917 -68.4331 -99.053 -70.1915 0 88.8779 68.9353 70.6277 19.6561 2.65163 21.4088 1.13223 -153.297 21.2086 176.692 -157.913 60.3822 -174.958 0.333156 -13.4712 -32.2983 -77.1586 39.1425 -74.1181 25.1457 7.97573 -72.9791 0.420957 0.000575232 0.35866 -1.79888 5.74084 45.8627 -70.5032 -27.7674 87.5543 20.8212 -6.49526 73.346 0.58676 0.000331107 0.0646651 -50.8465 -2.61602 98.0747 -1.30307 22.0779 -10.9629 5.15689 -9.42842 -1.07331 -1.32337 2.76532 0.235369 -53.6857 3.12862 81.6403 2.75317 16.1097 12.4605 -7.8689 -5.4079 1.217 1.24371 0.992537 -8.03442 
31.2425 97.8312 -12.522 -8.05617 -68.2886 -99.3177 -70.1915 0 88.8779 69.6643 70.8317 18.4011 2.52248 21.3575 1.6085 -153.048 21.344 177.516 -159.196 60.6031 -173.675 0.352043 -13.4105 -32.1092 -76.1768 37.4833 -76.0576 27.3855 5.05523 -79.5966 0.420957 0.000575232 0.35866 -1.79132 5.91221 44.8438 -68.2025 -27.0422 91.472 22.7111 -4.13703 80.0754 0.58676 0.000331107 0.0646651 -50.6013 -2.74517 98.024 -1.35818 21.9113 -10.8231 5.12948 -9.17637 -1.06349 -1.37957 2.97625 0.058868 -53.182 3.02649 81.6821 2.67354 16.4025 12.2181 -8.1489 -5.28102 1.23978 1.10204 0.752276 -7.11457 
31.1884 97.8271 -12.8755 -7.72057 -68.3745 -99.0337 -70.1915 0 88.8779 72.5233 71.2503 15.0739 1.88813 21.326 2.14502 -152.376 21.5315 178.149 -160.061 60.8453 -172.265 0.288727 -13.6506 -32.4651 -75.1442 35.067 -78.5164 29.4626 1.94091 -85.5017 0.420957 0.000575232 0.35866 -1.80267 6.03957 44.3866 -66.5811 -25.7223 95.1921 24.694 -1.60287 85.9404 0.58676 0.000331107 0.0646651 -50.4897 -2.78794 98.0013 -1.38931 21.8011 -10.9128 5.26906 -8.68927 -1.05332 -1.21029 2.54775 0.172823 -52.9194 3.01526 81.7135 2.63446 16.623 12.3226 -8.22152 -5.09456 1.24458 1.19918 0.527988 -7.62595 
31.2099 97.8346 -13.0846 -6.77862 -68.4584 -98.0841 -70.1915 0 88.8779 75.3837 71.4167 12.4324 1.60041 21.4539 1.50585 -150.873 21.5695 177.484 -158.988 60.8295 -172.493 0.232857 -13.9833 -31.9822 -73.8193 32.569 -81.813 29.7655 -0.373988 -90.8827 0.420957 0.000575232 0.35866 -1.81994 6.05272 44.5947 -65.2658 -23.7005 98.7186 26.4679 0.399475 91.1023 0.58676 0.000331107 0.0646651 -50.3571 -3.01735 97.8397 -1.1836 21.7586 -11.1836 5.06009 -8.31761 -1.02985 -1.07856 2.24155 0.208965 -52.8058 2.85158 81.6044 2.77554 16.6809 12.1444 -8.13411 -5.05635 1.23772 1.2446 0.679113 -7.92894 
31.1614 97.841 -13.3457 -6.88796 -68.2855 -98.1369 -70.1915 0 88.8779 78.1307 71.7544 9.90797 1.30243 21.7361 1.14 -149.54 21.5792 176.936 -158.161 60.8114 -172.523 0.199713 -14.2008 -31.6177 -72.9559 29.8564 -85.0599 30.9585 -3.69167 -94.8506 0.420957 0.000575232 0.35866 -1.85216 6.1651 44.5477 -63.873 -21.4821 102.022 28.1983 3.03055 95.1629 0.58676 0.000331107 0.0646651 -49.966 -2.89346 97.8392 -1.22162 21.8033 -11.101 5.34027 -8.132 -1.03926 -1.02831 2.25354 -0.0466503 -52.5846 3.0197 81.7544 2.76367 16.367 11.8256 -8.69032 -4.31194 1.28154 1.16897 -0.368665 -7.08185 
31.1784 97.8136 -13.8882 -6.63002 -67.8085 -97.9868 -70.1915 0 88.8779 80.726 72.1447 6.95004 0.823511 21.8955 1.53477 -148.773 21.7162 177.324 -158.912 61.0061 -171.022 0.115906 -14.5732 -31.7371 -72.3418 26.671 -88.3157 31.5882 -5.80173 -98.6889 0.420957 0.000575232 0.35866 -1.93891 6.58369 43.8976 -62.7111 -19.2345 105.485 28.3473 4.96134 98.8631 0.58676 0.000331107 0.0646651 -49.0823 -2.99947 97.7003 -1.25591 21.8627 -10.9899 5.40081 -7.72924 -1.0294 -1.0295 2.00156 0.490846 -51.5636 2.9657 81.8936 2.66316 16.6719 10.7319 -8.28873 -4.55205 1.24686 0.673386 0.430131 -4.48535 
